<!--?xml version="1.0" standalone="no"?-->

<svg version="1.0" xmlns="http://www.w3.org/2000/svg" width="1378.000000pt" height="1378.000000pt" viewBox="0 0 1378.000000 1378.000000" preserveAspectRatio="xMidYMid meet">

<g transform="translate(0.000000,1378.000000) scale(0.100000,-0.100000)" class="hsm_000000" style="fill:#000000" stroke="none">
<path d="M5042 11080 c-40 -4 -85 -13 -100 -19 -35 -14 -69 -19 -167 -27 -95
-8 -128 -21 -175 -66 -60 -58 -106 -245 -89 -363 8 -59 15 -73 57 -121 26 -30
73 -71 105 -90 31 -20 57 -40 57 -45 0 -5 15 -15 33 -24 17 -8 39 -19 47 -24
45 -26 105 -36 245 -37 83 -1 199 -9 259 -17 93 -13 113 -19 128 -39 20 -26
18 -49 -13 -112 -11 -22 -24 -70 -30 -106 -7 -36 -15 -85 -19 -110 -4 -25 -6
-48 -3 -53 2 -4 -2 -10 -10 -13 -7 -2 -14 -10 -15 -17 0 -7 -6 -30 -12 -52 -6
-22 -12 -47 -12 -55 -1 -8 -18 -32 -38 -53 l-37 -39 -84 2 c-46 1 -142 4 -212
7 -88 3 -132 2 -140 -6 -6 -6 -30 -11 -53 -11 -24 0 -45 -4 -48 -9 -3 -4 -52
-11 -109 -15 -58 -3 -129 -13 -158 -20 -30 -8 -81 -17 -114 -21 -33 -4 -64
-10 -70 -13 -5 -3 -70 -7 -145 -8 -74 -1 -164 -5 -200 -9 -36 -4 -81 -9 -100
-10 -20 -1 -49 -9 -65 -17 -17 -8 -62 -25 -102 -37 -39 -11 -107 -38 -150 -58
-65 -31 -94 -38 -178 -45 -55 -4 -110 -8 -122 -8 -174 3 -243 -5 -314 -39 -36
-17 -81 -31 -100 -31 -42 -1 -78 -40 -55 -60 24 -19 193 26 235 62 26 23 39
28 60 23 35 -9 81 -54 81 -80 0 -20 -140 -158 -340 -334 -28 -24 -50 -48 -50
-53 0 -5 -15 -22 -33 -38 -36 -31 -67 -111 -67 -173 0 -47 -21 -100 -77 -199
-18 -31 -33 -63 -33 -71 0 -8 -7 -20 -15 -27 -8 -7 -20 -31 -27 -54 -6 -22
-24 -57 -40 -77 -15 -20 -28 -42 -28 -47 0 -6 -11 -23 -24 -39 -14 -16 -28
-43 -31 -59 -4 -16 -10 -38 -14 -49 -18 -45 -51 -176 -51 -203 0 -15 -5 -33
-12 -40 -7 -7 -16 -54 -19 -105 -10 -126 -32 -237 -53 -269 -16 -25 -16 -28
-1 -52 10 -14 14 -33 11 -43 -4 -9 -11 -75 -17 -147 -9 -121 -12 -133 -36
-158 -26 -28 -26 -28 -10 -63 13 -27 14 -41 6 -62 -26 -68 -32 -299 -10 -403
7 -36 22 -85 33 -108 11 -24 20 -63 20 -85 -1 -24 6 -49 15 -59 25 -28 53
-171 41 -218 -10 -37 -8 -41 34 -97 25 -32 61 -92 82 -134 20 -42 45 -84 56
-94 10 -9 26 -38 35 -64 8 -26 30 -62 49 -81 18 -19 36 -48 40 -65 4 -16 27
-52 50 -80 23 -27 55 -74 70 -104 15 -29 42 -65 59 -80 17 -14 40 -34 50 -44
10 -10 31 -26 46 -35 16 -9 64 -46 107 -80 76 -61 384 -232 419 -232 8 0 41
-13 73 -29 31 -17 80 -41 107 -53 28 -13 59 -29 70 -36 11 -6 83 -30 160 -52
77 -23 151 -45 165 -51 114 -43 521 -88 855 -94 174 -3 199 -6 300 -33 119
-33 215 -70 243 -94 9 -9 43 -28 74 -42 32 -15 60 -31 63 -36 3 -5 18 -11 34
-15 15 -3 43 -21 61 -40 19 -19 39 -35 45 -35 5 0 22 -11 36 -24 15 -14 53
-38 86 -54 32 -17 65 -37 72 -46 8 -9 20 -16 27 -16 8 0 14 -4 14 -10 0 -5 5
-10 10 -10 16 0 170 -89 210 -122 19 -15 39 -28 45 -28 5 0 32 -20 58 -44 28
-25 69 -50 99 -60 27 -9 70 -29 94 -46 25 -16 50 -30 56 -30 6 0 26 -9 44 -21
46 -28 273 -106 332 -114 26 -3 110 -17 187 -30 77 -13 178 -28 225 -35 99
-13 219 -35 307 -55 34 -8 76 -15 92 -15 17 0 40 -4 53 -9 29 -12 96 -25 288
-57 331 -56 402 -64 672 -76 267 -11 277 -11 303 8 15 10 36 24 47 30 10 6 29
20 41 31 12 11 30 23 40 26 9 4 22 18 27 32 5 14 22 30 37 36 60 23 99 44 111
61 7 10 20 18 28 18 8 0 48 16 88 35 41 19 80 35 87 35 7 0 20 7 29 15 28 26
135 29 224 6 44 -11 82 -24 85 -29 3 -6 26 -15 51 -22 25 -6 52 -17 60 -24 8
-7 38 -23 65 -36 28 -12 96 -44 151 -71 56 -27 105 -49 110 -49 19 0 158 -61
168 -74 6 -8 29 -19 51 -26 22 -7 47 -18 55 -26 9 -7 42 -25 75 -40 33 -15 67
-32 75 -39 8 -7 33 -18 55 -25 37 -11 126 -49 168 -71 9 -5 39 -17 65 -25 26
-9 58 -25 71 -35 13 -11 31 -19 41 -19 9 0 38 -11 63 -24 54 -29 140 -45 217
-40 30 2 92 6 137 8 60 4 96 12 135 30 37 17 73 26 113 27 33 1 78 6 100 12
22 5 99 11 170 11 166 2 267 19 346 57 34 17 76 30 93 29 52 -3 55 -2 82 55
22 44 31 54 46 49 10 -3 18 -1 18 4 0 5 13 15 29 22 47 19 64 45 66 100 1 28
-2 50 -7 50 -4 0 -8 7 -8 15 0 32 -60 77 -185 138 -71 35 -145 69 -162 76 -18
8 -33 16 -33 20 0 9 -54 36 -120 61 -30 11 -77 37 -105 58 -86 64 -152 110
-182 125 -44 23 -107 90 -128 137 -18 40 -18 41 3 63 12 13 22 31 22 40 0 10
6 20 14 23 8 3 33 34 55 68 54 82 56 133 8 197 -18 24 -39 58 -47 74 -22 45
-48 79 -114 145 -43 44 -71 63 -105 73 -38 10 -50 20 -69 55 -13 23 -31 42
-40 42 -17 0 -43 18 -111 76 -35 31 -125 69 -140 60 -10 -6 -87 23 -121 46
-14 9 -45 24 -70 34 -25 10 -73 35 -108 56 -34 21 -66 38 -71 38 -4 0 -16 9
-26 20 -10 11 -23 20 -29 20 -5 0 -22 12 -37 26 -27 26 -55 44 -94 63 -12 5
-27 16 -34 25 -7 9 -19 16 -25 16 -7 0 -23 11 -36 25 -13 14 -27 25 -32 25 -4
0 -30 14 -56 30 -57 35 -69 37 -76 12 -10 -31 -36 -23 -36 11 0 36 -26 57 -61
50 -18 -3 -39 4 -70 25 -24 17 -60 38 -79 47 -20 9 -53 41 -75 72 -22 30 -54
69 -71 87 -35 36 -54 67 -54 92 0 9 -15 41 -32 71 -18 30 -38 64 -45 76 -6 11
-23 32 -36 46 -14 14 -50 52 -80 85 -39 40 -61 57 -72 52 -20 -7 -71 18 -99
50 -14 16 -39 27 -76 34 -30 6 -72 19 -93 30 -20 11 -45 20 -54 20 -9 0 -24 6
-32 14 -26 23 -136 83 -178 96 -43 14 -160 77 -169 91 -3 5 -29 21 -57 35 -29
15 -59 32 -67 39 -23 21 -149 80 -210 100 -30 10 -62 23 -70 30 -8 7 -34 19
-58 26 -34 10 -60 31 -125 102 -54 59 -77 92 -68 95 7 2 21 14 30 25 9 12 41
47 71 79 92 97 96 169 10 223 -22 14 -53 45 -68 69 -15 24 -45 64 -68 88 -22
23 -57 68 -77 98 -20 30 -53 78 -72 105 -34 47 -36 53 -30 105 4 30 13 84 21
120 8 36 19 86 25 112 7 31 7 59 0 85 -5 21 -15 65 -22 98 -6 33 -28 98 -48
145 -30 67 -51 99 -102 150 -35 36 -82 77 -104 92 -22 16 -58 42 -80 58 -80
61 -142 100 -191 121 -27 12 -56 27 -64 34 -8 7 -33 18 -55 25 -45 15 -129 65
-192 116 -23 19 -44 34 -47 34 -4 0 -48 25 -99 56 -110 68 -144 88 -217 128
-30 16 -76 45 -102 63 -26 18 -50 33 -53 33 -6 0 -151 92 -207 131 -15 11 -32
19 -38 19 -5 0 -10 4 -10 8 0 4 -23 16 -50 27 -68 26 -104 65 -97 102 42 229
106 473 130 498 10 9 35 19 55 22 20 2 43 6 50 8 7 3 59 0 115 -6 103 -11 293
1 362 21 17 5 55 17 85 26 35 11 72 32 101 58 51 46 108 81 127 77 6 -1 12 2
12 7 0 24 71 88 129 115 78 38 141 99 141 139 0 15 -20 70 -45 122 -74 156
-176 249 -328 296 -70 22 -107 25 -157 10 -40 -13 -80 -18 -167 -24 -34 -2
-66 -7 -71 -10 -19 -11 -219 5 -274 23 -18 6 -74 15 -124 20 -58 6 -104 17
-128 30 -20 11 -36 17 -36 13 0 -4 -4 -2 -8 5 -4 6 -30 14 -57 17 -28 3 -67
12 -87 21 -20 8 -72 19 -115 25 -158 21 -201 28 -213 35 -13 8 -133 40 -265
71 -38 9 -77 19 -85 22 -8 3 -19 6 -25 8 -5 1 -41 12 -80 24 -38 11 -95 22
-125 24 -30 2 -77 6 -105 9 -27 3 -83 2 -123 -3z m203 -90 c22 -11 55 -20 75
-20 23 0 45 -8 60 -22 13 -12 37 -23 54 -24 17 -2 51 -12 76 -23 25 -11 53
-21 63 -21 26 0 193 -49 225 -66 30 -15 117 -19 108 -5 -19 29 27 54 52 29 17
-17 15 -29 -3 -22 -22 9 -19 -13 3 -25 11 -6 46 -14 78 -20 32 -5 91 -21 129
-34 39 -14 93 -28 120 -31 28 -3 74 -15 104 -26 29 -12 61 -20 70 -19 9 1 23
0 31 -4 14 -5 51 -12 205 -37 104 -17 292 -4 380 26 46 16 126 19 141 5 5 -5
27 -11 49 -14 106 -13 145 -37 202 -121 15 -23 31 -43 34 -46 4 -3 10 -16 14
-29 4 -14 16 -34 26 -45 11 -11 19 -23 19 -27 0 -14 -52 -69 -65 -69 -7 0 -19
-7 -26 -16 -7 -9 -22 -20 -34 -24 -11 -4 -54 -34 -95 -67 -83 -65 -207 -131
-316 -168 -57 -19 -93 -24 -190 -25 -65 -1 -155 4 -199 11 -91 14 -212 17
-237 7 -14 -6 -18 -19 -18 -57 0 -27 -4 -53 -10 -56 -5 -3 -10 -23 -10 -43 0
-20 -9 -52 -20 -70 -11 -18 -20 -50 -20 -71 0 -21 -6 -54 -14 -72 -7 -19 -16
-74 -20 -124 -8 -105 -39 -210 -72 -244 -21 -23 -30 -25 -131 -25 -59 -1 -152
-9 -206 -19 -97 -18 -100 -18 -140 2 -23 11 -54 23 -70 27 -15 3 -29 10 -32
14 -3 5 -31 21 -63 35 -31 15 -84 40 -117 56 -33 16 -72 29 -87 29 -23 0 -28
-5 -34 -36 -10 -55 23 -83 106 -90 57 -5 104 -25 130 -54 3 -3 16 -6 30 -7 14
0 59 -17 101 -37 67 -32 86 -36 160 -37 46 -1 105 4 131 11 44 11 192 10 265
-3 17 -3 62 -20 99 -38 48 -22 86 -32 129 -34 33 -2 70 -3 82 -4 13 0 44 -21
70 -46 25 -25 52 -45 59 -45 7 0 19 -6 27 -14 7 -8 38 -27 68 -43 90 -49 151
-87 183 -114 17 -14 70 -45 119 -69 48 -23 91 -48 95 -54 4 -7 38 -30 76 -52
89 -50 111 -64 164 -97 23 -15 67 -39 97 -53 30 -15 55 -30 55 -35 0 -5 7 -9
15 -9 19 0 82 -35 121 -69 18 -14 49 -41 70 -58 22 -18 46 -33 54 -33 15 0 51
-51 89 -127 12 -24 25 -43 29 -43 4 0 9 -14 10 -31 1 -17 12 -49 23 -70 11
-22 20 -59 20 -82 1 -79 -12 -182 -25 -202 -7 -11 -15 -45 -18 -75 -3 -30 -11
-56 -17 -58 -21 -7 0 -84 31 -110 16 -14 37 -41 48 -61 10 -21 26 -43 35 -51
17 -14 145 -181 184 -239 13 -20 28 -37 33 -39 15 -6 9 -44 -13 -79 -12 -19
-45 -48 -75 -65 -65 -36 -74 -51 -74 -118 0 -58 20 -106 49 -115 11 -3 39 -28
63 -54 25 -27 60 -56 79 -66 19 -10 41 -24 50 -31 9 -8 41 -23 72 -34 30 -11
70 -28 88 -39 19 -10 51 -22 71 -25 21 -4 50 -17 65 -30 15 -13 54 -35 86 -50
32 -14 86 -44 120 -65 34 -22 82 -52 106 -67 24 -15 65 -31 90 -35 26 -4 69
-20 97 -36 27 -16 92 -44 144 -62 52 -17 107 -38 122 -46 14 -8 34 -15 43 -15
22 0 146 -99 175 -140 12 -16 29 -30 39 -30 21 0 41 -19 41 -40 0 -9 11 -27
25 -40 14 -13 25 -28 25 -34 0 -6 16 -42 35 -80 19 -39 35 -75 35 -82 0 -7 11
-26 25 -42 14 -17 25 -34 25 -40 0 -5 17 -26 38 -47 45 -46 136 -89 172 -81
20 4 30 -1 45 -25 18 -27 24 -29 57 -23 35 5 41 2 79 -36 26 -26 47 -39 57
-36 10 4 29 -6 48 -23 17 -16 51 -35 74 -41 24 -6 57 -26 74 -43 17 -18 38
-36 47 -42 48 -30 105 -79 111 -95 4 -11 21 -20 47 -25 22 -4 45 -13 51 -21
17 -19 69 -44 95 -44 12 0 32 -11 45 -25 14 -15 35 -25 50 -25 15 0 40 -11 56
-25 23 -20 40 -25 85 -25 71 0 111 -20 152 -75 18 -24 44 -49 59 -55 14 -6 36
-23 49 -36 24 -25 100 -64 125 -64 8 0 14 -9 14 -19 0 -11 17 -33 39 -50 23
-19 41 -42 44 -60 4 -16 21 -46 39 -67 18 -20 33 -42 33 -48 0 -6 7 -24 16
-41 22 -41 32 -85 19 -85 -5 0 -10 -8 -10 -18 0 -11 -11 -24 -25 -30 -34 -16
-83 -95 -91 -148 -4 -31 -2 -54 10 -78 9 -19 16 -38 16 -43 0 -5 27 -38 60
-72 l60 -63 54 4 c54 5 54 4 60 -27 8 -38 54 -85 87 -88 13 0 30 -9 37 -19 7
-10 21 -18 31 -18 10 0 24 -7 31 -14 6 -8 37 -20 68 -26 32 -7 68 -22 82 -35
14 -12 42 -28 63 -35 21 -7 41 -18 44 -26 3 -8 18 -14 33 -14 16 0 35 -6 43
-14 8 -8 30 -21 51 -30 20 -8 36 -20 36 -25 0 -6 7 -11 15 -11 8 0 26 -11 41
-24 14 -13 35 -31 45 -40 24 -20 25 -55 2 -63 -10 -4 -34 -22 -54 -41 -34 -31
-68 -55 -94 -65 -55 -22 -119 -41 -160 -49 -27 -5 -60 -16 -73 -24 -16 -11
-35 -13 -62 -9 -22 4 -41 2 -44 -4 -4 -6 -13 -8 -20 -5 -8 3 -17 1 -20 -4 -3
-6 -15 -8 -27 -5 -14 4 -25 -1 -35 -16 -18 -25 -56 -28 -75 -5 -10 12 -22 14
-49 9 -33 -7 -114 -13 -186 -14 -17 0 -53 -10 -79 -21 -39 -17 -69 -21 -164
-21 -64 0 -141 -1 -171 -4 -32 -2 -78 3 -110 12 -67 20 -135 23 -135 6 0 -40
-45 -19 -60 29 -12 35 -22 42 -187 118 -96 44 -110 47 -132 25 -19 -19 -33 0
-15 21 14 17 14 16 -29 34 -19 7 -62 32 -97 55 -37 24 -88 47 -122 55 -32 8
-71 25 -88 38 -39 33 -103 62 -137 62 -15 0 -33 7 -42 15 -8 8 -17 15 -20 15
-11 0 -242 113 -257 126 -20 18 -162 64 -199 64 -16 0 -32 4 -35 10 -7 11 -64
2 -84 -14 -8 -6 -37 -11 -65 -11 -35 -1 -72 -11 -116 -32 -36 -16 -85 -37
-110 -46 -49 -18 -193 -122 -198 -143 -2 -7 -18 -16 -35 -19 -18 -4 -40 -15
-51 -24 -10 -9 -47 -23 -81 -31 -55 -13 -95 -13 -287 -4 -247 13 -317 20 -398
39 -88 21 -231 27 -259 11 -27 -15 -77 -5 -97 20 -17 21 -162 64 -216 64 -27
0 -78 9 -114 21 -46 15 -77 19 -108 15 -34 -5 -47 -3 -65 13 -28 24 -48 29
-208 46 -70 8 -153 21 -183 30 -30 8 -73 15 -96 15 -54 0 -131 25 -314 103
-14 6 -32 11 -40 12 -8 1 -33 12 -55 24 -22 11 -45 21 -51 21 -7 0 -34 17 -61
38 -26 20 -65 46 -85 57 -21 11 -38 23 -38 28 0 4 -20 17 -44 27 -24 11 -50
27 -57 36 -15 18 -145 84 -165 84 -6 0 -19 11 -28 25 -9 14 -35 34 -58 46 -22
11 -62 36 -89 54 -26 19 -82 52 -126 75 -123 65 -167 90 -188 110 -24 22 -68
40 -99 40 -13 0 -31 9 -41 20 -10 11 -22 20 -27 20 -5 0 -25 7 -46 16 -20 9
-47 16 -58 15 -12 -1 -48 12 -80 30 -69 38 -163 50 -364 48 -69 -1 -132 -1
-140 0 -8 1 -71 6 -140 12 -69 5 -159 17 -200 25 -41 8 -120 23 -175 34 -55
10 -121 26 -147 33 -26 8 -49 13 -51 11 -8 -8 -120 26 -138 41 -9 9 -45 27
-80 39 -129 48 -225 88 -275 116 -27 15 -66 32 -85 38 -19 5 -88 45 -152 88
-65 43 -142 93 -172 109 -61 34 -235 221 -235 252 0 12 -74 126 -115 178 -43
55 -100 154 -115 201 -7 22 -20 50 -29 64 -19 28 -51 97 -51 108 0 4 5 0 10
-8 8 -12 10 -10 10 10 0 28 70 103 126 137 41 25 114 113 114 139 0 4 -14 4
-32 0 -28 -6 -101 -54 -153 -104 -11 -10 -33 -27 -48 -36 -25 -17 -29 -17 -51
-3 -19 13 -25 28 -31 78 -4 35 -20 90 -35 123 -32 69 -57 174 -47 199 4 10 17
17 31 17 14 0 28 5 31 10 4 6 41 29 83 51 42 22 104 56 137 74 99 56 150 75
206 75 58 0 80 10 77 34 -3 19 -11 21 -68 24 -85 4 -166 -22 -186 -59 -11 -22
-20 -27 -49 -26 -22 1 -43 -7 -57 -19 -13 -12 -41 -31 -63 -44 -22 -13 -53
-34 -68 -47 -16 -13 -37 -23 -48 -23 -10 0 -19 -5 -19 -12 0 -6 -7 -3 -15 8
-8 10 -15 38 -15 62 0 24 -4 51 -9 61 -11 20 10 203 31 268 14 44 39 66 146
124 31 17 73 46 92 65 37 34 87 47 192 48 25 1 50 4 54 9 4 4 16 7 27 7 33 0
2 26 -47 39 -29 7 -54 7 -77 1 -19 -6 -49 -10 -67 -10 -34 0 -149 -57 -172
-85 -7 -8 -19 -15 -27 -15 -8 0 -27 -9 -43 -20 -44 -31 -54 -9 -52 109 2 99
24 179 56 198 7 4 30 27 51 51 36 41 37 43 19 57 -13 9 -23 10 -31 3 -9 -7
-20 -4 -38 10 -15 12 -21 23 -15 27 5 3 10 16 10 28 1 32 38 109 49 102 6 -3
18 6 27 20 9 14 24 25 34 25 10 0 40 15 67 34 34 24 57 32 74 29 19 -3 39 6
78 39 30 24 63 49 75 57 11 8 31 23 43 34 11 10 41 23 65 28 23 6 52 18 63 28
27 25 93 39 152 34 59 -6 79 10 64 50 -16 42 -38 47 -115 27 -38 -10 -81 -27
-95 -37 -14 -10 -46 -25 -71 -32 -80 -24 -95 -31 -135 -66 -21 -19 -45 -35
-53 -35 -20 0 -105 -46 -180 -98 -63 -42 -64 -43 -85 -25 -11 10 -17 12 -12 4
5 -10 4 -12 -4 -7 -17 11 -4 67 35 147 19 38 34 73 34 77 0 10 72 80 97 96 56
33 93 57 180 113 52 34 108 66 124 72 16 5 47 25 69 42 31 25 50 33 78 32 23
-1 45 5 57 16 32 29 134 74 166 74 21 0 38 -9 57 -31 25 -29 29 -30 46 -17 16
12 18 19 8 39 -14 31 -51 56 -83 56 -46 0 -154 -13 -159 -19 -3 -4 -21 -12
-40 -18 -86 -28 -120 -44 -142 -66 -13 -13 -42 -27 -64 -30 -22 -4 -59 -20
-82 -37 -23 -16 -45 -30 -48 -30 -4 0 -29 -16 -56 -36 -38 -27 -53 -33 -63
-24 -16 14 -10 37 40 145 71 155 163 255 299 326 211 110 231 119 267 119 19
0 34 9 49 30 19 26 27 30 70 30 27 0 52 5 55 10 11 18 69 44 120 52 110 20
132 20 157 4 14 -9 28 -13 31 -9 32 31 -48 80 -111 69 -21 -4 -55 -9 -76 -12
-22 -3 -49 -10 -59 -16 -11 -5 -44 -10 -74 -9 -40 0 -69 -7 -104 -24 -26 -14
-54 -25 -62 -25 -7 0 -31 -13 -53 -30 -21 -16 -46 -30 -54 -30 -8 0 -37 -11
-65 -24 -27 -14 -53 -22 -57 -20 -3 2 -9 0 -13 -6 -11 -17 -23 -1 -18 23 8 32
20 44 83 87 30 21 88 70 128 109 40 39 80 71 89 71 9 0 34 15 57 33 65 53 170
99 217 94 46 -5 41 -1 60 -51 8 -22 20 -41 27 -44 15 -5 32 38 32 80 0 36 52
91 97 102 15 4 46 16 68 26 32 14 76 20 186 25 79 4 158 9 174 11 17 3 86 10
155 15 188 14 373 44 522 83 45 11 102 13 280 9 l223 -5 34 36 c34 35 38 48
67 226 16 97 25 141 44 210 12 41 28 106 36 143 10 50 21 74 40 90 37 32 44
97 14 125 -31 29 -60 32 -365 41 l-270 8 -110 57 c-108 55 -162 93 -167 117
-2 6 -13 23 -25 37 -28 31 -37 78 -29 153 5 57 47 159 65 159 4 0 28 13 52 30
31 21 56 30 86 30 23 0 77 11 120 24 65 21 94 24 173 21 52 -2 89 -1 82 2 -16
6 -5 23 16 23 10 0 35 -9 57 -20z m1142 -7266 c-3 -3 -12 -4 -19 -1 -8 3 -5 6
6 6 11 1 17 -2 13 -5z"></path>
<path d="M4426 9229 c-44 -26 -137 -40 -196 -29 -32 6 -84 10 -115 9 -50 -2
-58 -5 -68 -26 -8 -17 -8 -30 -1 -41 13 -19 122 -42 151 -31 11 4 26 3 34 -2
8 -5 10 -9 4 -10 -5 0 -23 -3 -40 -5 -16 -3 -52 -7 -80 -9 -27 -2 -92 -18
-142 -36 -75 -26 -93 -37 -93 -52 0 -19 4 -19 68 -12 37 4 90 7 118 6 28 -1
62 3 76 8 15 5 43 6 73 0 39 -7 52 -6 64 5 10 10 11 19 5 28 -15 19 -9 56 11
78 17 18 47 31 107 44 14 3 41 18 58 33 30 25 31 27 14 40 -21 15 -24 16 -48
2z"></path>
<path d="M3590 9100 c-9 -6 -10 -10 -3 -10 6 0 15 5 18 10 8 12 4 12 -15 0z"></path>
<path d="M3700 8610 c-14 -4 -47 -8 -75 -9 -90 -2 -169 -51 -136 -84 18 -18
13 -31 -6 -16 -16 13 -17 12 -4 -3 7 -10 18 -15 24 -11 6 3 23 7 40 9 16 1 34
7 40 13 6 6 19 11 29 11 11 0 38 9 60 20 49 23 77 25 121 7 18 -7 43 -10 57
-7 14 4 39 1 57 -6 47 -19 102 -21 113 -5 13 23 -18 60 -60 71 -50 13 -229 20
-260 10z"></path>
<path d="M2511 7581 c-35 -20 -64 -41 -65 -46 -2 -18 85 -18 104 0 10 9 36 16
59 17 31 0 42 5 47 20 3 10 0 25 -6 33 -20 24 -71 15 -139 -24z"></path>
<path d="M3650 7466 c-19 -12 -51 -28 -70 -36 -19 -8 -51 -24 -71 -36 -20 -13
-61 -31 -90 -40 -39 -12 -70 -32 -109 -70 -31 -30 -62 -54 -69 -54 -14 0 -68
-53 -87 -87 -16 -26 -2 -138 22 -183 10 -19 19 -41 20 -48 1 -7 14 -28 28 -47
14 -18 26 -38 26 -42 0 -16 58 -65 68 -59 6 4 13 2 17 -4 12 -19 79 -47 130
-55 27 -4 66 -15 86 -25 20 -11 57 -21 83 -25 26 -3 58 -12 71 -21 15 -10 35
-14 52 -10 16 4 39 0 55 -8 15 -8 56 -17 91 -21 l64 -7 53 53 c29 30 59 61 66
70 30 33 65 116 69 159 2 25 6 60 8 77 4 26 -3 44 -32 85 -58 83 -73 98 -121
120 -25 11 -61 35 -80 53 -19 18 -49 35 -67 38 -17 4 -55 18 -84 32 -29 14
-58 25 -65 25 -27 0 -63 24 -66 43 -4 29 37 68 86 82 46 14 54 25 28 41 -37
24 -76 24 -112 0z m-183 -237 c15 -7 56 -11 90 -10 34 1 64 -2 68 -8 3 -6 19
-11 35 -11 32 0 78 -20 195 -85 44 -24 89 -49 100 -54 24 -11 68 -57 84 -88
16 -32 13 -83 -9 -128 -11 -22 -19 -45 -20 -50 0 -17 -115 -75 -147 -75 -17 0
-56 9 -89 21 -32 11 -76 24 -96 30 -20 5 -52 15 -70 23 -18 8 -70 24 -116 37
-73 19 -86 27 -123 68 -52 59 -51 58 -77 113 -28 61 -28 76 3 88 14 5 27 20
31 35 3 14 17 34 30 44 14 11 23 25 22 32 -2 7 8 16 22 20 36 10 36 10 67 -2z"></path>
<path d="M4354 6808 c-5 -7 -2 -9 7 -6 9 4 14 -2 15 -19 1 -14 14 -38 29 -53
39 -41 206 -108 286 -114 249 -22 289 -23 419 -10 121 12 139 12 179 -3 35
-14 53 -15 94 -6 51 10 52 10 97 -26 43 -35 87 -80 103 -107 14 -24 -54 -124
-85 -124 -7 0 -44 -14 -83 -30 -82 -35 -152 -39 -217 -11 -53 22 -111 85 -128
137 -17 52 -38 74 -70 74 -46 0 -64 -21 -57 -66 4 -21 11 -40 17 -42 5 -2 10
-18 10 -35 0 -44 54 -123 115 -169 57 -43 105 -49 170 -22 26 11 52 13 89 9
46 -6 71 -3 212 30 11 2 29 22 40 42 10 21 31 53 47 71 15 18 27 42 27 54 0
12 5 36 12 54 10 28 8 39 -16 90 -47 100 -90 133 -211 164 -74 19 -274 37
-320 29 -48 -8 -252 -6 -458 6 -128 7 -150 11 -160 27 -7 10 -18 18 -25 18 -7
0 -34 11 -60 25 -52 28 -67 30 -78 13z"></path>
<path d="M2703 6305 c-15 -31 -15 -37 -3 -46 18 -11 63 35 58 60 -6 31 -37 24
-55 -14z"></path>
<path d="M11802 2688 c-5 -7 -16 -27 -25 -44 -9 -16 -33 -48 -54 -71 -64 -68
-102 -123 -114 -164 -7 -22 -10 -42 -6 -45 6 -7 4 -7 157 0 159 7 161 7 174
-2 6 -4 25 -9 41 -10 79 -8 120 -35 131 -89 6 -31 5 -32 -47 -47 -35 -11 -56
-13 -63 -6 -5 5 -31 10 -58 10 -39 0 -50 -4 -64 -25 -8 -13 -13 -29 -10 -34
11 -18 111 -32 238 -32 103 -1 130 2 152 16 14 10 26 22 26 27 0 5 -16 30 -35
55 -19 25 -35 51 -35 57 -1 17 -54 72 -86 88 -16 8 -49 25 -74 38 -29 15 -67
25 -105 27 -113 6 -136 10 -161 29 -37 29 -23 58 43 89 l55 25 -7 37 c-12 68
-47 102 -73 71z"></path>
</g>
<style>.hsm_000000{fill:#000000;} @media (prefers-color-scheme: dark) { .hsm_000000{fill:#dedede;} }</style></svg>
